<svg width="20" height="20" viewBox="0 0 20 20" fill="none" xmlns="http://www.w3.org/2000/svg">
<g filter="url(#filter0_b_291_3386)">
<path d="M2.20915 9.15924L2.83059 9.09264C2.80422 8.84651 2.7876 8.60922 2.7876 8.36806C2.7876 4.13352 6.4726 0.625 11.0813 0.625C15.69 0.625 19.375 4.13352 19.375 8.36806C19.375 10.6981 18.2984 12.8452 16.3789 14.3235C16.2034 14.4586 16.1126 14.6764 16.1401 14.8962L16.4561 17.4235C16.4561 17.4242 16.4562 17.4248 16.4563 17.4255C16.5023 17.8222 16.331 18.1846 16.0023 18.3985C15.839 18.5032 15.6489 18.5592 15.4662 18.5592C15.2862 18.5592 15.1107 18.5132 14.9526 18.4172L14.9527 18.4172L14.9473 18.414L11.2141 16.1986C11.1219 16.1439 11.0172 16.1139 10.91 16.1113C10.5377 16.1024 10.1737 16.076 9.83341 16.025L9.83229 16.0248C9.80047 16.0201 9.77641 16.0003 9.76545 15.9718C9.75897 15.955 9.75938 15.944 9.76055 15.9373C9.76175 15.9305 9.76535 15.9193 9.77766 15.9049C10.4875 15.0769 10.8591 14.0769 10.8591 13.0128C10.8591 10.3697 8.54908 8.30153 5.81201 8.30153C4.78734 8.30153 3.79362 8.58339 2.95135 9.13597C2.93681 9.14477 2.92372 9.1482 2.91262 9.14897C2.90222 9.1497 2.8896 9.14839 2.87467 9.14235C2.86107 9.13502 2.84963 9.12488 2.84169 9.11417C2.8334 9.10297 2.83075 9.09385 2.83003 9.08759L2.20915 9.15924ZM2.20915 9.15924C2.23708 9.40125 2.39534 9.60606 2.60946 9.70845L16.3413 18.9236C16.872 18.5792 17.1513 17.9835 17.0768 17.3505L16.7602 14.8186C18.827 13.2269 20 10.8999 20 8.36806C20 3.7512 15.9968 0 11.0813 0C6.16578 0 2.1626 3.7512 2.1626 8.36806C2.1626 8.638 2.18122 8.89861 2.20915 9.15924ZM10.513 15.051C10.4126 15.2519 10.4276 15.4912 10.5524 15.6779C10.6742 15.8601 10.8823 15.9649 11.1005 15.9549C11.1086 15.9603 11.1168 15.9654 11.1251 15.9703L15.0199 18.2845C15.1755 18.3807 15.3536 18.4276 15.537 18.4119C15.7074 18.3973 15.839 18.3324 15.9245 18.277C16.1135 18.1568 16.3683 17.8726 16.3094 17.437L15.9477 14.5071C15.9444 14.4678 15.9613 14.438 15.9807 14.4228C18.0325 12.9817 19.2286 10.7686 19.2286 8.34943C19.2286 4.11632 15.5333 0.752596 11.0813 0.752596C6.79618 0.752596 3.21099 3.87554 2.94473 7.88924C2.9306 8.10221 3.02614 8.30767 3.19809 8.43412C3.37005 8.56057 3.59465 8.59052 3.79373 8.51356C4.42272 8.27039 5.10055 8.13673 5.8027 8.13673C8.70484 8.13673 10.9963 10.3487 10.9963 12.9942H10.9962L10.9963 13.0013C11.0044 13.7146 10.8346 14.408 10.513 15.051ZM15.6807 17.2234L15.6727 17.2186C15.6755 17.2202 15.6781 17.2218 15.6807 17.2234Z" stroke="#E9E9E9" stroke-width="1.25" stroke-linejoin="round"/>
<path d="M5.81107 17.6929C7.35029 17.6924 8.82463 17.0342 9.77098 15.886C10.4733 15.0547 10.8564 14.0583 10.8564 12.9909C10.8564 10.3561 8.54537 8.28893 5.80927 8.28893C4.78357 8.28893 3.78883 8.5713 2.94599 9.12504C1.58918 9.99555 0.762154 11.4338 0.762154 13.0002C0.762154 14.5073 1.50273 15.8781 2.78157 16.7533C2.79363 16.762 2.8017 16.7723 2.80696 16.7841C2.81214 16.7956 2.81563 16.8109 2.81419 16.8299L2.61059 18.4123C2.58008 18.6494 2.68747 18.8831 2.88724 19.0144C3.08701 19.1456 3.34416 19.1515 3.54968 19.0294L5.77187 17.7093C5.7953 17.6959 5.80857 17.6933 5.81107 17.6929ZM5.81107 17.6929C5.81047 17.6929 5.80987 17.6929 5.80927 17.6929C5.8108 17.6929 5.81154 17.6928 5.8115 17.6928C5.81148 17.6928 5.81134 17.6928 5.81107 17.6929ZM2.74329 19.2717L2.74043 19.2698C2.51992 19.1278 2.40892 18.8937 2.43596 18.6412L2.62139 17.2135C2.64927 16.9989 2.56414 16.7852 2.39636 16.6485C1.27883 15.7381 0.625 14.3959 0.625 13.0002C0.625 11.408 1.45756 9.90842 2.87747 9.00347L2.87749 9.0035L2.88232 9.00035C3.73755 8.44413 4.75448 8.1427 5.81858 8.1427C8.72072 8.1427 11.0122 10.3546 11.0122 13.0002C11.0122 14.0779 10.6198 15.1445 9.89588 15.9917L9.89581 15.9916L9.88891 16C8.95845 17.1279 7.55789 17.7983 5.99394 17.8487C5.88846 17.8521 5.78556 17.8822 5.69483 17.9361L3.42459 19.285C3.42438 19.2851 3.42416 19.2853 3.42394 19.2854C3.32067 19.3463 3.20823 19.375 3.09083 19.375C2.96646 19.375 2.85293 19.3432 2.74329 19.2717Z" stroke="#E9E9E9" stroke-width="1.25" stroke-linejoin="round"/>
<path d="M7.49915 6.2511H14.9982" stroke="#E9E9E9" stroke-width="1.25" stroke-linecap="round"/>
<path d="M9.99878 10.0017L14.9982 10.0017" stroke="#E9E9E9" stroke-width="1.25" stroke-linecap="round"/>
<path d="M3.74951 11.8771H7.49906" stroke="#E9E9E9" stroke-width="1.25" stroke-linecap="round"/>
<path d="M4.99939 14.3774L7.49909 14.3774" stroke="#E9E9E9" stroke-width="1.25" stroke-linecap="round"/>
</g>
<defs>
<filter id="filter0_b_291_3386" x="-20" y="-20" width="60" height="60" filterUnits="userSpaceOnUse" color-interpolation-filters="sRGB">
<feFlood flood-opacity="0" result="BackgroundImageFix"/>
<feGaussianBlur in="BackgroundImageFix" stdDeviation="10"/>
<feComposite in2="SourceAlpha" operator="in" result="effect1_backgroundBlur_291_3386"/>
<feBlend mode="normal" in="SourceGraphic" in2="effect1_backgroundBlur_291_3386" result="shape"/>
</filter>
</defs>
</svg>
