<svg width="30" height="30" viewBox="0 0 30 30" fill="none" xmlns="http://www.w3.org/2000/svg">
<rect width="30" height="30" rx="4" fill="#D9D9D9"/>
<path d="M24 8.97998C20.67 8.64998 17.32 8.47998 13.98 8.47998C12 8.47998 10.02 8.57998 8.04 8.77998L6 8.97998" stroke="#292D32" stroke-width="1.5" stroke-linecap="round" stroke-linejoin="round"/>
<path d="M11.5 7.97L11.72 6.66C11.88 5.71 12 5 13.69 5H16.31C18 5 18.13 5.75 18.28 6.67L18.5 7.97" stroke="#292D32" stroke-width="1.5" stroke-linecap="round" stroke-linejoin="round"/>
<path d="M21.85 12.14L21.2 22.21C21.09 23.78 21 25 18.21 25H11.79C9.00002 25 8.91002 23.78 8.80002 22.21L8.15002 12.14" stroke="#292D32" stroke-width="1.5" stroke-linecap="round" stroke-linejoin="round"/>
<path d="M13.33 19.5H16.66" stroke="#292D32" stroke-width="1.5" stroke-linecap="round" stroke-linejoin="round"/>
<path d="M12.5 15.5H17.5" stroke="#292D32" stroke-width="1.5" stroke-linecap="round" stroke-linejoin="round"/>
</svg>
