<svg width="30" height="30" viewBox="0 0 30 30" fill="none" xmlns="http://www.w3.org/2000/svg">
<rect width="30" height="30" rx="4" fill="#D9D9D9"/>
<path d="M18.58 15C18.58 16.98 16.98 18.58 15 18.58C13.02 18.58 11.42 16.98 11.42 15C11.42 13.02 13.02 11.42 15 11.42C16.98 11.42 18.58 13.02 18.58 15Z" stroke="#292D32" stroke-width="1.5" stroke-linecap="round" stroke-linejoin="round"/>
<path d="M15 23.27C18.53 23.27 21.82 21.19 24.11 17.59C25.01 16.18 25.01 13.81 24.11 12.4C21.82 8.79997 18.53 6.71997 15 6.71997C11.47 6.71997 8.17997 8.79997 5.88997 12.4C4.98997 13.81 4.98997 16.18 5.88997 17.59C8.17997 21.19 11.47 23.27 15 23.27Z" stroke="#292D32" stroke-width="1.5" stroke-linecap="round" stroke-linejoin="round"/>
</svg>
